<?xml version="1.0" standalone="no"?><!-- Generator: Adobe Fireworks CS6, Export SVG Extension by Aaron Beall (http://fireworks.abeall.com) . Version: 0.6.1  --><!DOCTYPE svg PUBLIC "-//W3C//DTD SVG 1.1//EN" "http://www.w3.org/Graphics/SVG/1.1/DTD/svg11.dtd"><svg id="Untitled-Seite%201" viewBox="0 0 201 220" style="background-color:#ffffff00" version="1.1"	xmlns="http://www.w3.org/2000/svg" xmlns:xlink="http://www.w3.org/1999/xlink" xml:space="preserve"	x="0px" y="0px" width="201px" height="220px">	<defs>		<filter id="filter1" x="-100%" y="-100%" width="300%" height="300%">			<!-- Schlagschatten -->			<feOffset result="out" in="SourceGraphic" dx="1.4142" dy="1.4142"/>			<feColorMatrix result="out" in="out" type="matrix" values="0 0 0 0.8667 0  0 0 0 0.8667 0  0 0 0 0.8667 0  0 0 0 0.651 0"/>			<feGaussianBlur result="out" in="out" stdDeviation="0"/>			<feBlend in="SourceGraphic" in2="out" mode="normal" result="Schlagschatten1"/>		</filter>	</defs>	<path filter="url(#filter1)" d="M 114.7038 136.0227 C 113.6264 136.0227 112.5868 136.3707 111.793 137.0091 L 69.0062 171.8184 C 68.0422 172.594 67.4469 173.6985 67.3271 174.9306 C 67.1948 176.1595 67.5635 177.3725 68.3573 178.3397 C 69.2583 179.3867 70.5656 179.9932 71.9675 179.9932 C 73.0449 179.9932 74.0623 179.6389 74.8972 178.9557 L 117.6965 144.1305 C 118.6668 143.3549 119.259 142.2472 119.3788 141.031 C 119.5048 139.7925 119.1393 138.5955 118.3455 137.6443 C 117.5012 136.6292 116.1403 136.0227 114.7038 136.0227 L 114.7038 136.0227 ZM 111.1818 106.9623 C 110.0792 106.9623 109.0334 107.323 108.2521 107.9806 L 39.8916 164.9267 C 38.9276 165.7151 38.3417 166.8324 38.2409 168.0709 C 38.1306 169.2935 38.5118 170.4841 39.3088 171.4098 C 40.1877 172.4631 41.4825 173.0697 42.8591 173.0697 C 43.9586 173.0697 45.0203 172.6802 45.8645 171.9843 L 114.1998 115.0446 C 115.1637 114.2529 115.756 113.1421 115.8631 111.91 C 115.9765 110.681 115.5922 109.484 114.792 108.5423 C 113.9478 107.556 112.5994 106.9623 111.1818 106.9623 L 111.1818 106.9623 ZM 171.3138 192.838 C 167.502 192.838 164.0052 191.0153 161.9639 187.9733 C 160.4077 185.6431 159.9036 182.8851 160.5148 180.2039 C 161.1573 177.4236 162.9153 175.0806 165.4607 173.59 C 167.2311 172.5525 169.2661 171.9971 171.3264 171.9971 C 175.1571 171.9971 178.6539 173.8198 180.7015 176.8809 C 182.2389 179.2047 182.7493 181.9467 182.1381 184.6152 C 181.4828 187.3923 179.7187 189.748 177.1544 191.2515 C 175.4028 192.2889 173.3741 192.838 171.3138 192.838 L 171.3138 192.838 ZM 171.3327 163.136 C 168.5794 163.136 166.0592 161.722 164.6101 159.3566 C 162.2979 155.574 163.4256 150.604 167.1177 148.2738 C 168.3904 147.463 169.8584 147.0353 171.3453 147.0353 C 174.0861 147.0353 176.6 148.443 178.068 150.7923 C 180.3613 154.5845 179.2272 159.5641 175.5352 161.8975 C 174.275 162.7115 172.8259 163.136 171.3327 163.136 L 171.3327 163.136 ZM 32.9421 199.3658 C 20.7255 199.3561 20.7255 193.403 20.7255 182.5915 L 20.7255 104.8747 C 20.7255 94.2516 23.1638 88.0973 35.5947 88.0591 L 131.9546 88.0591 C 144.1587 88.0973 144.1649 94.0569 144.1713 104.8747 L 144.1713 182.5915 C 144.1649 194.1786 139.0048 199.3561 127.4371 199.3658 L 32.9421 199.3658 L 32.9421 199.3658 ZM 172.4794 68.4407 L 29.9463 68.4407 C 8.723 68.4662 0.0441 77.1997 0 98.5832 L 0 189.3715 C 0.0441 210.6655 8.4395 218.9745 29.9463 219 L 168.4974 219 C 190.5619 218.9745 199.9749 210.107 200 189.3715 L 200 95.9657 C 199.9749 74.6396 193.794 68.4662 172.4794 68.4407 L 172.4794 68.4407 ZM 50.6245 0 C 45.9904 0 41.5802 2.6494 39.5703 7.1118 C 36.8327 13.1672 39.5735 20.2535 45.6692 22.9444 C 47.2569 23.6404 48.9203 23.9691 50.5647 23.9691 C 52.0233 23.9691 53.466 23.7105 54.8239 23.2093 L 89.5648 58.2357 L 105.5366 58.2357 L 131.2489 37.9822 C 133.0698 39.0069 135.1553 39.6038 137.3163 39.6038 C 138.1039 39.6038 138.9041 39.524 139.7104 39.3547 C 146.2441 37.9695 150.4402 31.5981 149.0541 25.1405 C 147.8507 19.4938 142.8292 15.6315 137.2281 15.6315 C 136.3964 15.6315 135.5585 15.7145 134.7142 15.89 C 128.2184 17.2658 124.0601 23.5158 125.3453 29.9351 L 97.5286 51.9378 L 61.8016 16.5763 C 64.2872 10.6135 61.5591 3.7411 55.5767 1.0533 C 53.9639 0.3384 52.2784 0 50.6245 0 L 50.6245 0 Z" fill="#ffffff"/></svg>